<!DOCTYPE svg PUBLIC "-//W3C//DTD SVG 1.1//EN" "http://www.w3.org/Graphics/SVG/1.1/DTD/svg11.dtd">
<svg width="32px" height="32px" viewBox="-16.32 -16.32 80.64 80.64" xmlns="http://www.w3.org/2000/svg" fill="#000000" stroke="#000000" stroke-width="1.296">

<g id="SVGRepo_bgCarrier" stroke-width="0">

<rect x="-16.32" y="-16.32" width="80.64" height="80.64" rx="40.32" fill="#2196f3" strokewidth="0"/>

</g>

<g id="SVGRepo_iconCarrier">

<title>70 Basic icons by Xicons.co</title>

<rect y="6" width="48" height="36" rx="2" ry="2" fill="#ffffff"/>

<path d="M47.84,40.56A2.11,2.11,0,0,1,46,41.9L2,42H2A2,2,0,0,1,.15,40.78a2,2,0,0,1,.44-2.16L17.88,21.73a9.23,9.23,0,0,1,12.56.07L47.4,38.41A2,2,0,0,1,47.84,40.56Z" fill="#ffffff"/>

<path d="M47.84,7.44A2.11,2.11,0,0,0,46,6.1L2,6H2A2,2,0,0,0,.15,7.22,2,2,0,0,0,.59,9.38L17.88,26.27a9.23,9.23,0,0,0,12.56-.07L47.4,9.59A2,2,0,0,0,47.84,7.44Z" fill="#ffffff"/>

</g>

</svg>